<svg width="24" height="26" viewBox="0 0 24 26" fill="none" xmlns="http://www.w3.org/2000/svg">
<path d="M7.36837 25.7687C6.74779 25.7687 6.21875 25.5478 5.78125 25.1059C5.34375 24.6639 5.125 24.1327 5.125 23.5121C5.125 22.8915 5.34596 22.3625 5.78788 21.925C6.22981 21.4875 6.76106 21.2687 7.38163 21.2687C8.00221 21.2687 8.53125 21.4897 8.96875 21.9316C9.40625 22.3736 9.625 22.9048 9.625 23.5254C9.625 24.1459 9.40404 24.675 8.96212 25.1125C8.52019 25.55 7.98894 25.7687 7.36837 25.7687ZM19.8684 25.7687C19.2478 25.7687 18.7188 25.5478 18.2812 25.1059C17.8438 24.6639 17.625 24.1327 17.625 23.5121C17.625 22.8915 17.846 22.3625 18.2879 21.925C18.7298 21.4875 19.2611 21.2687 19.8816 21.2687C20.5022 21.2687 21.0312 21.4897 21.4688 21.9316C21.9062 22.3736 22.125 22.9048 22.125 23.5254C22.125 24.1459 21.904 24.675 21.4621 25.1125C21.0202 25.55 20.4889 25.7687 19.8684 25.7687ZM5.75 5.14374L9.1875 12.2687H18.1875L22.0938 5.14374H5.75ZM4.8125 3.26874H23.2211C23.6995 3.26874 24.0635 3.48749 24.3131 3.92499C24.5627 4.36249 24.5625 4.79999 24.3125 5.23749L20.0938 12.8312C19.8646 13.2271 19.5671 13.5448 19.2013 13.7844C18.8354 14.0239 18.435 14.1437 18 14.1437H8.53125L6.78125 17.3937H22.125V19.2687H7.0625C6.1875 19.2687 5.55729 18.9771 5.17188 18.3937C4.78646 17.8104 4.79167 17.1542 5.1875 16.425L7.1875 12.7375L2.4375 2.67499H0V0.799988H3.65625L4.8125 3.26874Z" fill="#173F5F"/>
</svg>
