<svg width="40" height="40" viewBox="0 0 40 40" fill="none" xmlns="http://www.w3.org/2000/svg">
<path d="M12.3394 39.95C11.3465 39.95 10.5 39.5965 9.79999 38.8894C9.09999 38.1823 8.74999 37.3323 8.74999 36.3394C8.74999 35.3465 9.10352 34.5 9.81059 33.8C10.5177 33.1 11.3677 32.75 12.3606 32.75C13.3535 32.75 14.2 33.1035 14.9 33.8106C15.6 34.5177 15.95 35.3677 15.95 36.3606C15.95 37.3535 15.5965 38.2 14.8894 38.9C14.1823 39.6 13.3323 39.95 12.3394 39.95ZM32.3394 39.95C31.3465 39.95 30.5 39.5965 29.8 38.8894C29.1 38.1823 28.75 37.3323 28.75 36.3394C28.75 35.3465 29.1035 34.5 29.8106 33.8C30.5177 33.1 31.3677 32.75 32.3606 32.75C33.3535 32.75 34.2 33.1035 34.9 33.8106C35.6 34.5177 35.95 35.3677 35.95 36.3606C35.95 37.3535 35.5965 38.2 34.8894 38.9C34.1823 39.6 33.3323 39.95 32.3394 39.95ZM9.74999 6.95L15.25 18.35H29.65L35.9 6.95H9.74999ZM8.24999 3.95H37.7037C38.4692 3.95 39.0516 4.3 39.4509 5C39.8503 5.7 39.85 6.4 39.45 7.1L32.7 19.25C32.3333 19.8833 31.8573 20.3917 31.272 20.775C30.6867 21.1583 30.046 21.35 29.35 21.35H14.2L11.4 26.55H35.95V29.55H11.85C10.45 29.55 9.44165 29.0833 8.82499 28.15C8.20832 27.2167 8.21665 26.1667 8.84999 25L12.05 19.1L4.44999 3H0.549988V0H6.39999L8.24999 3.95Z" fill="#3CAEA3"/>
</svg>
