<svg width="36" height="37" viewBox="0 0 36 37" fill="none" xmlns="http://www.w3.org/2000/svg">
<path d="M33.8 36.95L20.65 23.8C19.65 24.6666 18.484 25.3416 17.1521 25.825C15.8201 26.3083 14.4027 26.55 12.9 26.55C9.2946 26.55 6.24325 25.3 3.74595 22.8C1.24865 20.3 0 17.2833 0 13.75C0 10.2166 1.25 7.19995 3.75 4.69995C6.25 2.19995 9.275 0.949951 12.825 0.949951C16.375 0.949951 19.3917 2.19995 21.875 4.69995C24.3583 7.19995 25.6 10.2191 25.6 13.7575C25.6 15.1858 25.3667 16.5666 24.9 17.9C24.4333 19.2333 23.7333 20.4833 22.8 21.65L36 34.75L33.8 36.95ZM12.85 23.55C15.5583 23.55 17.8604 22.5916 19.7563 20.675C21.6521 18.7583 22.6 16.45 22.6 13.75C22.6 11.05 21.6521 8.74162 19.7563 6.82495C17.8604 4.90828 15.5583 3.94995 12.85 3.94995C10.1139 3.94995 7.7882 4.90828 5.8729 6.82495C3.95763 8.74162 3 11.05 3 13.75C3 16.45 3.95763 18.7583 5.8729 20.675C7.7882 22.5916 10.1139 23.55 12.85 23.55Z" fill="#3CAEA3"/>
</svg>
